    <svg width="23.5cm" height="19.9cm" xmlns="http://www.w3.org/2000/svg">
      <rect x="2mm" y="2mm" width="23.1cm" height="19.5cm" rx="6mm" stroke="black" stroke-width="2mm" fill="#333">
      </rect>
      <rect id="Button56" x="6mm" y="19.5mm" width="21mm" height="1cm" rx=".5mm" stroke="black" stroke-width=".5mm"
        fill="#777"></rect>
      <rect id="Button48" x="6mm" y="33.25mm" width="21mm" height="1cm" rx=".5mm" stroke="black" stroke-width=".5mm"
        fill="#777"></rect>
      <rect id="Button40" x="6mm" y="47mm" width="21mm" height="1cm" rx=".5mm" stroke="black" stroke-width=".5mm"
        fill="#777"></rect>
      <rect id="Button32" x="6mm" y="60.75mm" width="21mm" height="1cm" rx=".5mm" stroke="black" stroke-width=".5mm"
        fill="#777"></rect>
      <rect id="Button24" x="6mm" y="74.5mm" width="21mm" height="1cm" rx=".5mm" stroke="black" stroke-width=".5mm"
        fill="#777"></rect>
      <rect id="Button16" x="6mm" y="88.25mm" width="21mm" height="1cm" rx=".5mm" stroke="black" stroke-width=".5mm"
        fill="#777"></rect>
      <rect id="Button8" x="6mm" y="102mm" width="21mm" height="1cm" rx=".5mm" stroke="black" stroke-width=".5mm"
        fill="#777"></rect>
      <rect id="Button0" x="6mm" y="115.75mm" width="21mm" height="1cm" rx=".5mm" stroke="black" stroke-width=".5mm"
        fill="#777"></rect>
      <rect id="Button57" x="31mm" y="19.5mm" width="21mm" height="1cm" rx=".5mm" stroke="black" stroke-width=".5mm"
        fill="#777"></rect>
      <rect id="Button49" x="31mm" y="33.25mm" width="21mm" height="1cm" rx=".5mm" stroke="black" stroke-width=".5mm"
        fill="#777"></rect>
      <rect id="Button41" x="31mm" y="47mm" width="21mm" height="1cm" rx=".5mm" stroke="black" stroke-width=".5mm"
        fill="#777"></rect>
      <rect id="Button33" x="31mm" y="60.75mm" width="21mm" height="1cm" rx=".5mm" stroke="black" stroke-width=".5mm"
        fill="#777"></rect>
      <rect id="Button25" x="31mm" y="74.5mm" width="21mm" height="1cm" rx=".5mm" stroke="black" stroke-width=".5mm"
        fill="#777"></rect>
      <rect id="Button17" x="31mm" y="88.25mm" width="21mm" height="1cm" rx=".5mm" stroke="black" stroke-width=".5mm"
        fill="#777"></rect>
      <rect id="Button9" x="31mm" y="102mm" width="21mm" height="1cm" rx=".5mm" stroke="black" stroke-width=".5mm"
        fill="#777"></rect>
      <rect id="Button1" x="31mm" y="115.75mm" width="21mm" height="1cm" rx=".5mm" stroke="black" stroke-width=".5mm"
        fill="#777"></rect>
      <rect id="Button58" x="56mm" y="19.5mm" width="21mm" height="1cm" rx=".5mm" stroke="black" stroke-width=".5mm"
        fill="#777"></rect>
      <rect id="Button50" x="56mm" y="33.25mm" width="21mm" height="1cm" rx=".5mm" stroke="black" stroke-width=".5mm"
        fill="#777"></rect>
      <rect id="Button42" x="56mm" y="47mm" width="21mm" height="1cm" rx=".5mm" stroke="black" stroke-width=".5mm"
        fill="#777"></rect>
      <rect id="Button34" x="56mm" y="60.75mm" width="21mm" height="1cm" rx=".5mm" stroke="black" stroke-width=".5mm"
        fill="#777"></rect>
      <rect id="Button26" x="56mm" y="74.5mm" width="21mm" height="1cm" rx=".5mm" stroke="black" stroke-width=".5mm"
        fill="#777"></rect>
      <rect id="Button18" x="56mm" y="88.25mm" width="21mm" height="1cm" rx=".5mm" stroke="black" stroke-width=".5mm"
        fill="#777"></rect>
      <rect id="Button10" x="56mm" y="102mm" width="21mm" height="1cm" rx=".5mm" stroke="black" stroke-width=".5mm"
        fill="#777"></rect>
      <rect id="Button2" x="56mm" y="115.75mm" width="21mm" height="1cm" rx=".5mm" stroke="black" stroke-width=".5mm"
        fill="#777"></rect>
      <rect id="Button59" x="81mm" y="19.5mm" width="21mm" height="1cm" rx=".5mm" stroke="black" stroke-width=".5mm"
        fill="#777"></rect>
      <rect id="Button51" x="81mm" y="33.25mm" width="21mm" height="1cm" rx=".5mm" stroke="black" stroke-width=".5mm"
        fill="#777"></rect>
      <rect id="Button43" x="81mm" y="47mm" width="21mm" height="1cm" rx=".5mm" stroke="black" stroke-width=".5mm"
        fill="#777"></rect>
      <rect id="Button35" x="81mm" y="60.75mm" width="21mm" height="1cm" rx=".5mm" stroke="black" stroke-width=".5mm"
        fill="#777"></rect>
      <rect id="Button27" x="81mm" y="74.5mm" width="21mm" height="1cm" rx=".5mm" stroke="black" stroke-width=".5mm"
        fill="#777"></rect>
      <rect id="Button19" x="81mm" y="88.25mm" width="21mm" height="1cm" rx=".5mm" stroke="black" stroke-width=".5mm"
        fill="#777"></rect>
      <rect id="Button11" x="81mm" y="102mm" width="21mm" height="1cm" rx=".5mm" stroke="black" stroke-width=".5mm"
        fill="#777"></rect>
      <rect id="Button3" x="81mm" y="115.75mm" width="21mm" height="1cm" rx=".5mm" stroke="black" stroke-width=".5mm"
        fill="#777"></rect>
      <rect id="Button60" x="106mm" y="19.5mm" width="21mm" height="1cm" rx=".5mm" stroke="black" stroke-width=".5mm"
        fill="#777"></rect>
      <rect id="Button52" x="106mm" y="33.25mm" width="21mm" height="1cm" rx=".5mm" stroke="black" stroke-width=".5mm"
        fill="#777"></rect>
      <rect id="Button44" x="106mm" y="47mm" width="21mm" height="1cm" rx=".5mm" stroke="black" stroke-width=".5mm"
        fill="#777"></rect>
      <rect id="Button36" x="106mm" y="60.75mm" width="21mm" height="1cm" rx=".5mm" stroke="black" stroke-width=".5mm"
        fill="#777"></rect>
      <rect id="Button28" x="106mm" y="74.5mm" width="21mm" height="1cm" rx=".5mm" stroke="black" stroke-width=".5mm"
        fill="#777"></rect>
      <rect id="Button20" x="106mm" y="88.25mm" width="21mm" height="1cm" rx=".5mm" stroke="black" stroke-width=".5mm"
        fill="#777"></rect>
      <rect id="Button12" x="106mm" y="102mm" width="21mm" height="1cm" rx=".5mm" stroke="black" stroke-width=".5mm"
        fill="#777"></rect>
      <rect id="Button4" x="106mm" y="115.75mm" width="21mm" height="1cm" rx=".5mm" stroke="black" stroke-width=".5mm"
        fill="#777"></rect>
      <rect id="Button61" x="131mm" y="19.5mm" width="21mm" height="1cm" rx=".5mm" stroke="black" stroke-width=".5mm"
        fill="#777"></rect>
      <rect id="Button53" x="131mm" y="33.25mm" width="21mm" height="1cm" rx=".5mm" stroke="black" stroke-width=".5mm"
        fill="#777"></rect>
      <rect id="Button45" x="131mm" y="47mm" width="21mm" height="1cm" rx=".5mm" stroke="black" stroke-width=".5mm"
        fill="#777"></rect>
      <rect id="Button37" x="131mm" y="60.75mm" width="21mm" height="1cm" rx=".5mm" stroke="black" stroke-width=".5mm"
        fill="#777"></rect>
      <rect id="Button29" x="131mm" y="74.5mm" width="21mm" height="1cm" rx=".5mm" stroke="black" stroke-width=".5mm"
        fill="#777"></rect>
      <rect id="Button21" x="131mm" y="88.25mm" width="21mm" height="1cm" rx=".5mm" stroke="black" stroke-width=".5mm"
        fill="#777"></rect>
      <rect id="Button13" x="131mm" y="102mm" width="21mm" height="1cm" rx=".5mm" stroke="black" stroke-width=".5mm"
        fill="#777"></rect>
      <rect id="Button5" x="131mm" y="115.75mm" width="21mm" height="1cm" rx=".5mm" stroke="black" stroke-width=".5mm"
        fill="#777"></rect>
      <rect id="Button62" x="156mm" y="19.5mm" width="21mm" height="1cm" rx=".5mm" stroke="black" stroke-width=".5mm"
        fill="#777"></rect>
      <rect id="Button54" x="156mm" y="33.25mm" width="21mm" height="1cm" rx=".5mm" stroke="black" stroke-width=".5mm"
        fill="#777"></rect>
      <rect id="Button46" x="156mm" y="47mm" width="21mm" height="1cm" rx=".5mm" stroke="black" stroke-width=".5mm"
        fill="#777"></rect>
      <rect id="Button38" x="156mm" y="60.75mm" width="21mm" height="1cm" rx=".5mm" stroke="black" stroke-width=".5mm"
        fill="#777"></rect>
      <rect id="Button30" x="156mm" y="74.5mm" width="21mm" height="1cm" rx=".5mm" stroke="black" stroke-width=".5mm"
        fill="#777"></rect>
      <rect id="Button22" x="156mm" y="88.25mm" width="21mm" height="1cm" rx=".5mm" stroke="black" stroke-width=".5mm"
        fill="#777"></rect>
      <rect id="Button14" x="156mm" y="102mm" width="21mm" height="1cm" rx=".5mm" stroke="black" stroke-width=".5mm"
        fill="#777"></rect>
      <rect id="Button6" x="156mm" y="115.75mm" width="21mm" height="1cm" rx=".5mm" stroke="black" stroke-width=".5mm"
        fill="#777"></rect>
      <rect id="Button63" x="181mm" y="19.5mm" width="21mm" height="1cm" rx=".5mm" stroke="black" stroke-width=".5mm"
        fill="#777"></rect>
      <rect id="Button55" x="181mm" y="33.25mm" width="21mm" height="1cm" rx=".5mm" stroke="black" stroke-width=".5mm"
        fill="#777"></rect>
      <rect id="Button47" x="181mm" y="47mm" width="21mm" height="1cm" rx=".5mm" stroke="black" stroke-width=".5mm"
        fill="#777"></rect>
      <rect id="Button39" x="181mm" y="60.75mm" width="21mm" height="1cm" rx=".5mm" stroke="black" stroke-width=".5mm"
        fill="#777"></rect>
      <rect id="Button31" x="181mm" y="74.5mm" width="21mm" height="1cm" rx=".5mm" stroke="black" stroke-width=".5mm"
        fill="#777"></rect>
      <rect id="Button23" x="181mm" y="88.25mm" width="21mm" height="1cm" rx=".5mm" stroke="black" stroke-width=".5mm"
        fill="#777"></rect>
      <rect id="Button15" x="181mm" y="102mm" width="21mm" height="1cm" rx=".5mm" stroke="black" stroke-width=".5mm"
        fill="#777"></rect>
      <rect id="Button7" x="181mm" y="115.75mm" width="21mm" height="1cm" rx=".5mm" stroke="black" stroke-width=".5mm"
        fill="#777"></rect>
      <rect id="Button112" x="21.2cm" y="19.5mm" width="1cm" height="1cm" rx="5mm" stroke="black" stroke-width=".5mm"
        fill="#777"></rect>
      <rect id="Button113" x="21.2cm" y="33.25mm" width="1cm" height="1cm" rx="5mm" stroke="black" stroke-width=".5mm"
        fill="#777"></rect>
      <rect id="Button114" x="21.2cm" y="47mm" width="1cm" height="1cm" rx="5mm" stroke="black" stroke-width=".5mm"
        fill="#777"></rect>
      <rect id="Button115" x="21.2cm" y="60.75mm" width="1cm" height="1cm" rx="5mm" stroke="black" stroke-width=".5mm"
        fill="#777"></rect>
      <rect id="Button116" x="21.2cm" y="74.5mm" width="1cm" height="1cm" rx="5mm" stroke="black" stroke-width=".5mm"
        fill="#777"></rect>
      <rect id="Button117" x="21.2cm" y="88.25mm" width="1cm" height="1cm" rx="5mm" stroke="black" stroke-width=".5mm"
        fill="#777"></rect>
      <rect id="Button118" x="21.2cm" y="102mm" width="1cm" height="1cm" rx="5mm" stroke="black" stroke-width=".5mm"
        fill="#777"></rect>
      <rect id="Button119" x="21.2cm" y="115.75mm" width="1cm" height="1cm" rx="5mm" stroke="black" stroke-width=".5mm"
        fill="#777"></rect>
      <rect id="Button100" x="12.5mm" y="13cm" width="1cm" height="1cm" rx="5mm" stroke="black" stroke-width=".5mm"
        fill="#777"></rect>
      <rect id="Button101" x="37.5mm" y="13cm" width="1cm" height="1cm" rx="5mm" stroke="black" stroke-width=".5mm"
        fill="#777"></rect>
      <rect id="Button102" x="62.5mm" y="13cm" width="1cm" height="1cm" rx="5mm" stroke="black" stroke-width=".5mm"
        fill="#777"></rect>
      <rect id="Button103" x="87.5mm" y="13cm" width="1cm" height="1cm" rx="5mm" stroke="black" stroke-width=".5mm"
        fill="#777"></rect>
      <rect id="Button104" x="112.5mm" y="13cm" width="1cm" height="1cm" rx="5mm" stroke="black" stroke-width=".5mm"
        fill="#777"></rect>
      <rect id="Button105" x="137.5mm" y="13cm" width="1cm" height="1cm" rx="5mm" stroke="black" stroke-width=".5mm"
        fill="#777"></rect>
      <rect id="Button106" x="162.5mm" y="13cm" width="1cm" height="1cm" rx="5mm" stroke="black" stroke-width=".5mm"
        fill="#777"></rect>
      <rect id="Button107" x="187.5mm" y="13cm" width="1cm" height="1cm" rx="5mm" stroke="black" stroke-width=".5mm"
        fill="#777"></rect>
      <g>
        <rect x="6mm" y="14.5cm" width="2.1cm" height="4.8cm" rx="1mm" stroke="black" stroke-width="1mm" fill="#333">
        </rect>
        <rect x="15mm" y="15.1cm" width="3mm" height="37mm" rx=".1mm" fill="none"></rect>
        <rect x="9mm" y="14.8cm" width="1.5cm" height="1.5cm" rx="1mm" stroke="black" stroke-width=".5mm" fill="#222">
        </rect>
        <rect x="9mm" y="15.3cm" width="1.5cm" height=".5cm" rx="1mm" fill="none"></rect>
        <rect x="9mm" y="15.51cm" width="1.5cm" height="1mm" rx=".5mm" fill="#ddd"></rect>
      </g>
      <g>
        <rect x="31mm" y="14.5cm" width="2.1cm" height="4.8cm" rx="1mm" stroke="black" stroke-width="1mm" fill="#333">
        </rect>
        <rect x="40mm" y="15.1cm" width="3mm" height="37mm" rx=".1mm" fill="none"></rect>
        <rect x="34mm" y="14.8cm" width="1.5cm" height="1.5cm" rx="1mm" stroke="black" stroke-width=".5mm" fill="#222">
        </rect>
        <rect x="34mm" y="15.3cm" width="1.5cm" height=".5cm" rx="1mm" fill="none"></rect>
        <rect x="34mm" y="15.51cm" width="1.5cm" height="1mm" rx=".5mm" fill="#ddd"></rect>
      </g>
      <g>
        <rect x="56mm" y="14.5cm" width="2.1cm" height="4.8cm" rx="1mm" stroke="black" stroke-width="1mm" fill="#333">
        </rect>
        <rect x="65mm" y="15.1cm" width="3mm" height="37mm" rx=".1mm" fill="none"></rect>
        <rect x="59mm" y="14.8cm" width="1.5cm" height="1.5cm" rx="1mm" stroke="black" stroke-width=".5mm" fill="#222">
        </rect>
        <rect x="59mm" y="15.3cm" width="1.5cm" height=".5cm" rx="1mm" fill="none"></rect>
        <rect x="59mm" y="15.51cm" width="1.5cm" height="1mm" rx=".5mm" fill="#ddd"></rect>
      </g>
      <g>
        <rect x="81mm" y="14.5cm" width="2.1cm" height="4.8cm" rx="1mm" stroke="black" stroke-width="1mm" fill="#333">
        </rect>
        <rect x="90mm" y="15.1cm" width="3mm" height="37mm" rx=".1mm" fill="none"></rect>
        <rect x="84mm" y="14.8cm" width="1.5cm" height="1.5cm" rx="1mm" stroke="black" stroke-width=".5mm" fill="#222">
        </rect>
        <rect x="84mm" y="15.3cm" width="1.5cm" height=".5cm" rx="1mm" fill="none"></rect>
        <rect x="84mm" y="15.51cm" width="1.5cm" height="1mm" rx=".5mm" fill="#ddd"></rect>
      </g>
      <g>
        <rect x="106mm" y="14.5cm" width="2.1cm" height="4.8cm" rx="1mm" stroke="black" stroke-width="1mm" fill="#333">
        </rect>
        <rect x="115mm" y="15.1cm" width="3mm" height="37mm" rx=".1mm" fill="none"></rect>
        <rect x="109mm" y="14.8cm" width="1.5cm" height="1.5cm" rx="1mm" stroke="black" stroke-width=".5mm" fill="#222">
        </rect>
        <rect x="109mm" y="15.3cm" width="1.5cm" height=".5cm" rx="1mm" fill="none"></rect>
        <rect x="109mm" y="15.51cm" width="1.5cm" height="1mm" rx=".5mm" fill="#ddd"></rect>
      </g>
      <g>
        <rect x="131mm" y="14.5cm" width="2.1cm" height="4.8cm" rx="1mm" stroke="black" stroke-width="1mm" fill="#333">
        </rect>
        <rect x="140mm" y="15.1cm" width="3mm" height="37mm" rx=".1mm" fill="none"></rect>
        <rect x="134mm" y="14.8cm" width="1.5cm" height="1.5cm" rx="1mm" stroke="black" stroke-width=".5mm" fill="#222">
        </rect>
        <rect x="134mm" y="15.3cm" width="1.5cm" height=".5cm" rx="1mm" fill="none"></rect>
        <rect x="134mm" y="15.51cm" width="1.5cm" height="1mm" rx=".5mm" fill="#ddd"></rect>
      </g>
      <g>
        <rect x="156mm" y="14.5cm" width="2.1cm" height="4.8cm" rx="1mm" stroke="black" stroke-width="1mm" fill="#333">
        </rect>
        <rect x="165mm" y="15.1cm" width="3mm" height="37mm" rx=".1mm" fill="none"></rect>
        <rect x="159mm" y="14.8cm" width="1.5cm" height="1.5cm" rx="1mm" stroke="black" stroke-width=".5mm" fill="#222">
        </rect>
        <rect x="159mm" y="15.3cm" width="1.5cm" height=".5cm" rx="1mm" fill="none"></rect>
        <rect x="159mm" y="15.51cm" width="1.5cm" height="1mm" rx=".5mm" fill="#ddd"></rect>
      </g>
      <g>
        <rect x="181mm" y="14.5cm" width="2.1cm" height="4.8cm" rx="1mm" stroke="black" stroke-width="1mm" fill="#333">
        </rect>
        <rect x="190mm" y="15.1cm" width="3mm" height="37mm" rx=".1mm" fill="none"></rect>
        <rect x="184mm" y="14.8cm" width="1.5cm" height="1.5cm" rx="1mm" stroke="black" stroke-width=".5mm" fill="#222">
        </rect>
        <rect x="184mm" y="15.3cm" width="1.5cm" height=".5cm" rx="1mm" fill="none"></rect>
        <rect x="184mm" y="15.51cm" width="1.5cm" height="1mm" rx=".5mm" fill="#ddd"></rect>
      </g>
      <g>
        <rect x="206mm" y="14.5cm" width="2.1cm" height="4.8cm" rx="1mm" stroke="black" stroke-width="1mm" fill="#333">
        </rect>
        <rect x="215mm" y="15.1cm" width="3mm" height="37mm" rx=".1mm" fill="none"></rect>
        <rect x="209mm" y="14.8cm" width="1.5cm" height="1.5cm" rx="1mm" stroke="black" stroke-width=".5mm" fill="#222">
        </rect>
        <rect x="209mm" y="15.3cm" width="1.5cm" height=".5cm" rx="1mm" fill="none"></rect>
        <rect x="209mm" y="15.51cm" width="1.5cm" height="1mm" rx=".5mm" fill="#ddd"></rect>
      </g>
    </svg>